Patient4_TMGait_0pt7_01_left_37_GRF.mot
version=1
nRows=71
nColumns=19
inDegrees=no
endheader
time	F1x	F1y	F1z	M1x	M1y	M1z	F2x	F2y	F2z	M2x	M2y	M2z	EC1x	EC1y	EC1z	EC2x	EC2y	EC2z
42.74	-3.5092	1.6089	2.1181	-3.0032	-2.062	-15.5888	-42.6338	753.5875	-20.1645	264.117	50.86	880.6879	-0.0592	0.0182	-0.0073	-0.0462	0.0165	0.9585
42.7521	-2.6502	1.6408	1.2789	-2.1705	-1.3767	-9.6682	-41.7741	750.1233	-34.379	263.9652	62.5064	868.415	-0.0592	0.0182	-0.0073	-0.0462	0.0165	0.9585
42.7641	-1.8446	1.6579	0.6502	-1.4899	-0.84193	-4.705	-40.8389	747.7289	-46.1098	263.9664	71.8841	857.4416	-0.0592	0.0182	-0.0073	-0.0462	0.0165	0.9585
42.7762	-1.1932	1.6616	0.24211	-0.98741	-0.48561	-0.95823	-39.7657	746.7903	-54.8339	264.2062	78.5586	848.5421	-0.0592	0.0182	-0.0073	-0.0462	0.0165	0.9585
42.7883	-0.70093	1.6812	-0.0032972	-0.66012	-0.26222	1.6246	-38.4992	747.4226	-60.6197	264.7399	82.5886	841.9196	-0.0592	0.0182	-0.0073	-0.0462	0.0165	0.9585
42.8004	-0.37887	1.7002	-0.10923	-0.47147	-0.16248	3.2078	-36.9608	749.369	-64.0435	265.5215	84.468	837.2255	-0.0592	0.0182	-0.0073	-0.0462	0.0165	0.9585
42.8124	-0.2004	1.7246	-0.13709	-0.38567	-0.13973	4.0371	-35.1062	752.1061	-65.6836	266.4231	84.6882	833.7632	-0.0592	0.0182	-0.0073	-0.0462	0.0165	0.9585
42.8245	-0.13542	1.7309	-0.10962	-0.35842	-0.17527	4.3198	-32.895	754.8593	-66.1509	267.2227	83.7781	830.5375	-0.0592	0.0182	-0.0073	-0.0462	0.0165	0.9585
42.8366	-0.17651	1.6925	-0.060111	-0.35065	-0.24893	4.2319	-30.3021	756.7345	-65.8763	267.6539	82.1021	826.438	-0.0592	0.0182	-0.0073	-0.0462	0.0165	0.9585
42.8486	-0.29085	1.5419	0.0093077	-0.32054	-0.3558	3.8425	-27.2828	756.872	-65.1928	267.4541	79.9354	820.4338	-0.0592	0.0182	-0.0073	-0.0462	0.0165	0.9585
42.8607	-0.4679	1.225	0.094435	-0.23442	-0.499	3.2096	-23.7965	754.626	-64.293	266.4328	77.4281	811.7527	-0.0592	0.0182	-0.0073	-0.0462	0.0165	0.9585
42.8728	-0.6829	0.65062	0.20248	-0.053345	-0.68201	2.2689	-19.7998	749.7055	-63.2252	264.5251	74.5964	800.0265	-0.0592	0.0182	-0.0073	-0.0462	0.0165	0.9585
42.8849	-0.91293	-0.22763	0.33398	0.24762	-0.90428	1.0101	-15.2081	742.2784	-61.9951	261.8241	71.4037	785.3977	-0.0592	0.0182	-0.0073	-0.0462	0.0165	0.9585
42.8969	-1.096	-1.4556	0.48828	0.68328	-1.1418	-0.62466	-9.9736	732.9787	-60.5088	258.59	67.7297	768.51	-0.0592	0.0182	-0.0073	-0.0462	0.0165	0.9585
42.909	-1.1836	-2.9731	0.63862	1.232	-1.3427	-2.5681	-4.0841	722.902	-58.7816	255.2371	63.577	750.5147	-0.0592	0.0182	-0.0073	-0.0462	0.0165	0.9585
42.9211	-1.0606	-4.6391	0.75467	1.8356	-1.4181	-4.6835	2.3897	713.5017	-56.8157	252.2945	58.9783	732.9505	-0.0592	0.0182	-0.0073	-0.0462	0.0165	0.9585
42.9331	-0.60311	-6.1091	0.76459	2.3643	-1.2376	-6.5659	9.2565	706.3496	-54.7995	250.3135	54.1807	717.5018	-0.0592	0.0182	-0.0073	-0.0462	0.0165	0.9585
42.9452	0.35229	-6.8222	0.59737	2.6078	-0.64613	-7.5662	16.2272	702.8836	-52.9104	249.7793	49.4526	705.7468	-0.0592	0.0182	-0.0073	-0.0462	0.0165	0.9585
42.9573	1.9689	-5.9195	0.12267	2.2431	0.5707	-6.6274	22.927	704.0521	-51.4389	250.9812	45.1959	698.7932	-0.0592	0.0182	-0.0073	-0.0462	0.0165	0.9585
42.9694	4.3985	-2.2557	-0.7631	0.83781	2.603	-2.3456	28.9685	710.1664	-50.5449	253.9693	41.6914	697.1151	-0.0592	0.0182	-0.0073	-0.0462	0.0165	0.9585
42.9814	7.6848	5.6094	-2.2094	-2.1449	5.6377	7.0579	33.993	720.793	-50.3461	258.5202	39.1698	700.4507	-0.0592	0.0182	-0.0073	-0.0462	0.0165	0.9585
42.9935	11.7017	19.2159	-4.2816	-7.2759	9.7101	23.5026	37.7819	734.7197	-50.7528	264.1396	37.6255	707.7428	-0.0592	0.0182	-0.0073	-0.0462	0.0165	0.9585
43.0056	16.0265	39.9462	-7.002	-15.0619	14.668	48.7217	40.2926	749.9411	-51.6062	270.0579	36.9279	717.1279	-0.0592	0.0182	-0.0073	-0.0462	0.0165	0.9585
43.0176	19.7599	68.455	-10.1668	-25.7306	19.9216	83.5846	41.7091	763.8392	-52.6491	275.311	36.7732	726.0695	-0.0592	0.0182	-0.0073	-0.0462	0.0165	0.9585
43.0297	21.4447	103.9687	-13.3514	-38.9708	24.3771	127.229	42.3591	773.7397	-53.5848	278.94	36.7722	731.9249	-0.0592	0.0182	-0.0073	-0.0462	0.0165	0.9585
43.0418	19.342	143.791	-15.6891	-53.747	26.3619	176.5018	42.6032	777.3085	-54.0834	280.1388	36.5006	732.3319	-0.0592	0.0182	-0.0073	-0.0462	0.0165	0.9585
43.0539	13.3237	184.4087	-16.232	-68.7026	24.6633	227.1722	42.7245	772.872	-53.8513	278.3507	35.6055	725.5704	-0.0592	0.0182	-0.0073	-0.0462	0.0165	0.9585
43.0659	5.1097	222.327	-14.2874	-82.501	19.0634	274.7939	42.8921	759.4081	-52.6842	273.259	33.8622	710.5678	-0.0592	0.0182	-0.0073	-0.0462	0.0165	0.9585
43.078	-3.315	253.8536	-9.9361	-93.8189	10.4229	314.4427	43.1244	736.3785	-50.5654	264.7138	31.2718	686.7801	-0.0592	0.0182	-0.0073	-0.0462	0.0165	0.9585
43.0901	-10.246	277.027	-4.0195	-102.0056	0.4692	343.3754	43.3811	703.7478	-47.582	252.7421	27.9536	654.1676	-0.0592	0.0182	-0.0073	-0.0462	0.0165	0.9585
43.1021	-15.1967	293.0126	2.2657	-107.5728	-9.1389	362.8528	43.5316	662.2428	-43.8567	237.6322	24.0839	613.4591	-0.0592	0.0182	-0.0073	-0.0462	0.0165	0.9585
43.1142	-18.3518	305.5829	8.2379	-111.9518	-17.6067	377.441	43.4765	613.2905	-39.5525	219.9151	19.8685	566.0461	-0.0592	0.0182	-0.0073	-0.0462	0.0165	0.9585
43.1263	-20.1947	318.9787	13.1792	-116.7517	-24.2835	392.3138	43.07	558.7715	-34.7894	200.2776	15.4795	513.7781	-0.0592	0.0182	-0.0073	-0.0462	0.0165	0.9585
43.1384	-21.14	336.5625	16.9123	-123.2197	-29.0937	411.5285	42.1978	500.6388	-29.6822	179.4277	11.0763	458.5413	-0.0592	0.0182	-0.0073	-0.0462	0.0165	0.9585
43.1504	-21.3497	360.278	19.408	-132.055	-32.1038	437.388	40.6709	440.747	-24.3195	158.0263	6.805	402.1422	-0.0592	0.0182	-0.0073	-0.0462	0.0165	0.9585
43.1625	-20.9569	390.7929	21.0659	-143.446	-33.8353	470.7326	38.3359	380.7319	-18.8789	136.6433	2.8614	346.1322	-0.0592	0.0182	-0.0073	-0.0462	0.0165	0.9585
43.1746	-20.0574	427.6857	22.45	-157.1517	-35.0027	511.0422	35.0936	322.1193	-13.5914	115.7934	-0.54909	291.9231	-0.0592	0.0182	-0.0073	-0.0462	0.0165	0.9585
43.1866	-18.9121	469.415	24.3127	-172.5079	-36.5682	556.5843	31.0098	266.28	-8.7766	95.937	-3.2079	240.6891	-0.0592	0.0182	-0.0073	-0.0462	0.0165	0.9585
43.1987	-17.8165	513.9896	27.3243	-188.6988	-39.4039	605.032	26.294	214.5578	-4.7091	77.5203	-4.9885	193.5637	-0.0592	0.0182	-0.0073	-0.0462	0.0165	0.9585
43.2108	-17.0902	559.7444	31.7425	-205.0566	-43.9111	654.4898	21.2924	168.0711	-1.611	60.9232	-5.8464	151.4378	-0.0592	0.0182	-0.0073	-0.0462	0.0165	0.9585
43.2229	-16.7907	605.5	37.4257	-221.1465	-49.9436	703.6017	16.3615	127.6261	0.47196	46.4269	-5.8851	114.9381	-0.0592	0.0182	-0.0073	-0.0462	0.0165	0.9585
43.2349	-16.9622	650.4099	43.8602	-236.6897	-56.9329	751.4198	11.8427	93.5648	1.653	34.1633	-5.3206	84.277	-0.0592	0.0182	-0.0073	-0.0462	0.0165	0.9585
43.247	-17.4795	693.4086	50.5459	-251.3605	-64.2594	796.7232	7.9382	65.7235	2.1415	24.0958	-4.3998	59.2608	-0.0592	0.0182	-0.0073	-0.0462	0.0165	0.9585
43.2591	-18.2137	733.1531	56.9644	-264.7313	-71.2986	838.0456	4.7471	43.6708	2.1662	16.0874	-3.3427	39.4846	-0.0592	0.0182	-0.0073	-0.0462	0.0165	0.9585
43.2711	-18.9526	768.0047	62.8854	-276.2579	-77.7151	873.5582	2.2769	26.828	1.9152	9.9472	-2.3048	24.4219	-0.0592	0.0182	-0.0073	-0.0462	0.0165	0.9585
43.2832	-19.5811	796.3416	68.1135	-285.3969	-83.2567	901.5315	0.5098	14.6018	1.5277	5.4719	-1.3947	13.5387	-0.0592	0.0182	-0.0073	-0.0462	0.0165	0.9585
43.2953	-19.9202	816.8878	72.5847	-291.7268	-87.7997	920.629	-0.57587	6.3773	1.0904	2.4457	-0.67305	6.255	-0.0592	0.0182	-0.0073	-0.0462	0.0165	0.9585
43.3074	-19.9111	828.9165	76.1509	-295.0264	-91.178	930.1686	-1.1487	1.451	0.69112	0.61691	-0.16123	1.9362	-0.0592	0.0182	-0.0073	-0.0462	0.0165	0.9585
43.3194	-19.4941	832.2953	78.7328	-295.2871	-93.2976	930.1047	-1.3411	-1.0198	0.37481	-0.31354	0.15356	-0.19662	-0.0592	0.0182	-0.0073	-0.0462	0.0165	0.9585
43.3315	-18.6866	827.5617	80.2637	-292.733	-94.1032	921.1632	-1.3236	-1.8147	0.1405	-0.62831	0.33192	-0.83265	-0.0592	0.0182	-0.0073	-0.0462	0.0165	0.9585
43.3436	-17.5183	815.8611	80.7345	-287.8015	-93.6138	904.6853	-1.1697	-1.6242	-0.012717	-0.57262	0.40361	-0.62375	-0.0592	0.0182	-0.0073	-0.0462	0.0165	0.9585
43.3556	-16.1011	798.8558	80.2403	-281.0962	-91.9822	882.5534	-0.98979	-0.92478	-0.11121	-0.32132	0.42035	0.027966	-0.0592	0.0182	-0.0073	-0.0462	0.0165	0.9585
43.3677	-14.5437	778.4619	78.9382	-273.3027	-89.4348	856.8892	-0.78607	-0.076133	-0.17114	-0.0012932	0.39963	0.77927	-0.0592	0.0182	-0.0073	-0.0462	0.0165	0.9585
43.3798	-12.9898	756.6766	77.0715	-265.121	-86.2872	829.8701	-0.63365	0.74782	-0.20986	0.31748	0.37831	1.5063	-0.0592	0.0182	-0.0073	-0.0462	0.0165	0.9585
43.3919	-11.5557	735.4047	74.8431	-257.2121	-82.8092	803.5237	-0.49654	1.4301	-0.23483	0.59029	0.35905	2.0796	-0.0592	0.0182	-0.0073	-0.0462	0.0165	0.9585
43.4039	-10.3143	716.2559	72.4571	-250.1314	-79.2471	779.5312	-0.42148	1.968	-0.24954	0.8086	0.35922	2.5389	-0.0592	0.0182	-0.0073	-0.0462	0.0165	0.9585
43.416	-9.3012	700.4054	70.0311	-244.2864	-75.7459	759.0727	-0.36518	2.3458	-0.25578	0.96756	0.36631	2.8416	-0.0592	0.0182	-0.0073	-0.0462	0.0165	0.9585
43.4281	-8.499	688.5233	67.6821	-239.9111	-72.4198	742.7782	-0.35384	2.6311	-0.25109	1.0838	0.37656	3.0869	-0.0592	0.0182	-0.0073	-0.0462	0.0165	0.9585
43.4401	-7.8212	680.8148	65.4638	-237.075	-69.2951	730.7732	-0.34524	2.8174	-0.24126	1.1599	0.37982	3.2448	-0.0592	0.0182	-0.0073	-0.0462	0.0165	0.9585
43.4522	-7.1446	677.1386	63.4373	-235.722	-66.3838	722.8068	-0.37869	2.9512	-0.22886	1.2092	0.3903	3.3765	-0.0592	0.0182	-0.0073	-0.0462	0.0165	0.9585
43.4643	-6.3172	677.1253	61.6376	-235.7163	-63.6635	718.4054	-0.42109	3.0149	-0.21985	1.2279	0.40936	3.4371	-0.0592	0.0182	-0.0073	-0.0462	0.0165	0.9585
43.4764	-5.174	680.3483	60.1174	-236.8946	-61.1335	717.0509	-0.50777	2.9786	-0.21691	1.2046	0.45026	3.4054	-0.0592	0.0182	-0.0073	-0.0462	0.0165	0.9585
43.4884	-3.5855	686.3334	58.9269	-239.0759	-58.8047	718.1964	-0.61039	2.7641	-0.22371	1.1118	0.51027	3.1715	-0.0592	0.0182	-0.0073	-0.0462	0.0165	0.9585
43.5005	-1.4556	694.607	58.1065	-242.0804	-56.6876	721.3254	-0.74897	2.2922	-0.24463	0.91674	0.59601	2.6447	-0.0592	0.0182	-0.0073	-0.0462	0.0165	0.9585
43.5126	1.294	704.7127	57.6757	-245.7303	-54.7762	725.9666	-0.89117	1.4478	-0.2729	0.57485	0.69016	1.6743	-0.0592	0.0182	-0.0073	-0.0462	0.0165	0.9585
43.5246	4.6662	716.1742	57.642	-249.8359	-53.0701	731.6743	-1.0162	0.14186	-0.31115	0.048535	0.78474	0.14947	-0.0592	0.0182	-0.0073	-0.0462	0.0165	0.9585
43.5367	8.6429	728.4642	58.0025	-254.1837	-51.5661	737.9733	-1.0744	-1.6861	-0.35167	-0.68668	0.85302	-2.0172	-0.0592	0.0182	-0.0073	-0.0462	0.0165	0.9585
43.5488	13.1452	740.9521	58.7247	-258.5221	-50.2545	744.3404	-0.99411	-4.0077	-0.3908	-1.6196	0.86057	-4.8011	-0.0592	0.0182	-0.0073	-0.0462	0.0165	0.9585
43.5609	18.0661	752.8723	59.7509	-262.56	-49.1123	750.1072	-0.6894	-6.6354	-0.41286	-2.6752	0.74978	-7.9785	-0.0592	0.0182	-0.0073	-0.0462	0.0165	0.9585
43.5729	23.2771	763.4495	61.002	-266.0077	-48.1039	754.606	-0.036863	-9.1465	-0.38929	-3.682	0.44096	-11.0431	-0.0592	0.0182	-0.0073	-0.0462	0.0165	0.9585
43.585	28.7045	772.0434	62.369	-268.6305	-47.1487	757.2658	1.0687	-10.7685	-0.28389	-4.3301	-0.15302	-13.0483	-0.0592	0.0182	-0.0073	-0.0462	0.0165	0.9585
